<svg width="64" height="64" viewBox="0 0 64 64" fill="none" xmlns="http://www.w3.org/2000/svg">
<path d="M60 49H48C47.7348 49 47.4804 48.8946 47.2929 48.7071C47.1054 48.5196 47 48.2652 47 48C47 47.7348 47.1054 47.4804 47.2929 47.2929C47.4804 47.1054 47.7348 47 48 47H59V13H5V47H40C40.2652 47 40.5196 47.1054 40.7071 47.2929C40.8946 47.4804 41 47.7348 41 48C41 48.2652 40.8946 48.5196 40.7071 48.7071C40.5196 48.8946 40.2652 49 40 49H4C3.73478 49 3.48043 48.8946 3.29289 48.7071C3.10536 48.5196 3 48.2652 3 48V12C3 11.7348 3.10536 11.4804 3.29289 11.2929C3.48043 11.1054 3.73478 11 4 11H60C60.2652 11 60.5196 11.1054 60.7071 11.2929C60.8946 11.4804 61 11.7348 61 12V48C61 48.2652 60.8946 48.5196 60.7071 48.7071C60.5196 48.8946 60.2652 49 60 49Z" fill="#ED1651"/>
<path d="M44.0001 44.0001C43.8249 44.0013 43.6525 43.9564 43.5001 43.8701L41.4101 42.6601H39.0001C38.8239 42.6608 38.6506 42.6149 38.4978 42.5271C38.345 42.4393 38.2182 42.3127 38.1301 42.1601L36.9301 40.0701L34.8401 38.8701C34.6875 38.782 34.5608 38.6551 34.473 38.5023C34.3852 38.3495 34.3394 38.1763 34.3401 38.0001V35.5901L33.1301 33.5001C33.0423 33.348 32.9961 33.1756 32.9961 33.0001C32.9961 32.8245 33.0423 32.6521 33.1301 32.5001L34.3401 30.4101V28.0001C34.3394 27.8239 34.3852 27.6506 34.473 27.4978C34.5608 27.345 34.6875 27.2182 34.8401 27.1301L36.9301 25.9301L38.1301 23.8401C38.2182 23.6875 38.345 23.5609 38.4978 23.473C38.6506 23.3852 38.8239 23.3394 39.0001 23.3401H41.4101L43.5001 22.1301C43.6521 22.0423 43.8245 21.9961 44.0001 21.9961C44.1756 21.9961 44.348 22.0423 44.5001 22.1301L46.5901 23.3401H49.0001C49.1763 23.3394 49.3495 23.3852 49.5023 23.473C49.6551 23.5609 49.782 23.6875 49.8701 23.8401L51.0701 25.9301L53.1601 27.1301C53.3127 27.2182 53.4393 27.345 53.5271 27.4978C53.6149 27.6506 53.6608 27.8239 53.6601 28.0001V30.4101L54.8701 32.5001C54.9578 32.6521 55.004 32.8245 55.004 33.0001C55.004 33.1756 54.9578 33.348 54.8701 33.5001L53.6601 35.5901V38.0001C53.6608 38.1763 53.6149 38.3495 53.5271 38.5023C53.4393 38.6551 53.3127 38.782 53.1601 38.8701L51.0701 40.0701L49.8701 42.1601C49.782 42.3127 49.6551 42.4393 49.5023 42.5271C49.3495 42.6149 49.1763 42.6608 49.0001 42.6601H46.5901L44.5001 43.8701C44.3477 43.9564 44.1752 44.0013 44.0001 44.0001ZM39.5801 40.6601H41.6801C41.8549 40.6615 42.0267 40.7062 42.1801 40.7901L44.0001 41.8501L45.8201 40.7901C45.9735 40.7062 46.1452 40.6615 46.3201 40.6601H48.4201L49.4201 38.8401C49.5115 38.6885 49.6385 38.5615 49.7901 38.4701L51.6101 37.4701V35.3701C51.6115 35.1952 51.6562 35.0235 51.7401 34.8701L52.8501 33.0001L51.7901 31.1801C51.7062 31.0267 51.6615 30.8549 51.6601 30.6801V28.5801L49.8401 27.5801C49.6885 27.4886 49.5615 27.3616 49.4701 27.2101L48.4701 25.3901H46.3701C46.1952 25.3886 46.0235 25.344 45.8701 25.2601L44.0001 24.1501L42.1801 25.2101C42.0267 25.294 41.8549 25.3386 41.6801 25.3401H39.5801L38.5801 27.1601C38.4886 27.3116 38.3616 27.4386 38.2101 27.5301L36.3901 28.5301V30.6301C36.3886 30.8049 36.344 30.9767 36.2601 31.1301L35.1501 33.0001L36.2101 34.8201C36.294 34.9735 36.3386 35.1452 36.3401 35.3201V37.4201L38.1601 38.4201C38.3116 38.5115 38.4386 38.6385 38.5301 38.7901L39.5801 40.6601Z" fill="#ED1651"/>
<path d="M48 36H40C39.7348 36 39.4804 35.8946 39.2929 35.7071C39.1054 35.5196 39 35.2652 39 35C39 34.7348 39.1054 34.4804 39.2929 34.2929C39.4804 34.1054 39.7348 34 40 34H48C48.2652 34 48.5196 34.1054 48.7071 34.2929C48.8946 34.4804 49 34.7348 49 35C49 35.2652 48.8946 35.5196 48.7071 35.7071C48.5196 35.8946 48.2652 36 48 36ZM30 43H10C9.73478 43 9.48043 42.8946 9.29289 42.7071C9.10536 42.5196 9 42.2652 9 42C9 41.7348 9.10536 41.4804 9.29289 41.2929C9.48043 41.1054 9.73478 41 10 41H30C30.2652 41 30.5196 41.1054 30.7071 41.2929C30.8946 41.4804 31 41.7348 31 42C31 42.2652 30.8946 42.5196 30.7071 42.7071C30.5196 42.8946 30.2652 43 30 43ZM30 37H10C9.73478 37 9.48043 36.8946 9.29289 36.7071C9.10536 36.5196 9 36.2652 9 36C9 35.7348 9.10536 35.4804 9.29289 35.2929C9.48043 35.1054 9.73478 35 10 35H30C30.2652 35 30.5196 35.1054 30.7071 35.2929C30.8946 35.4804 31 35.7348 31 36C31 36.2652 30.8946 36.5196 30.7071 36.7071C30.5196 36.8946 30.2652 37 30 37ZM30 31H10C9.73478 31 9.48043 30.8946 9.29289 30.7071C9.10536 30.5196 9 30.2652 9 30C9 29.7348 9.10536 29.4804 9.29289 29.2929C9.48043 29.1054 9.73478 29 10 29H30C30.2652 29 30.5196 29.1054 30.7071 29.2929C30.8946 29.4804 31 29.7348 31 30C31 30.2652 30.8946 30.5196 30.7071 30.7071C30.5196 30.8946 30.2652 31 30 31ZM30 25H10C9.73478 25 9.48043 24.8946 9.29289 24.7071C9.10536 24.5196 9 24.2652 9 24C9 23.7348 9.10536 23.4804 9.29289 23.2929C9.48043 23.1054 9.73478 23 10 23H30C30.2652 23 30.5196 23.1054 30.7071 23.2929C30.8946 23.4804 31 23.7348 31 24C31 24.2652 30.8946 24.5196 30.7071 24.7071C30.5196 24.8946 30.2652 25 30 25ZM54 19H10C9.73478 19 9.48043 18.8946 9.29289 18.7071C9.10536 18.5196 9 18.2652 9 18C9 17.7348 9.10536 17.4804 9.29289 17.2929C9.48043 17.1054 9.73478 17 10 17H54C54.2652 17 54.5196 17.1054 54.7071 17.2929C54.8946 17.4804 55 17.7348 55 18C55 18.2652 54.8946 18.5196 54.7071 18.7071C54.5196 18.8946 54.2652 19 54 19ZM48 32H40C39.7348 32 39.4804 31.8946 39.2929 31.7071C39.1054 31.5196 39 31.2652 39 31C39 30.7348 39.1054 30.4804 39.2929 30.2929C39.4804 30.1054 39.7348 30 40 30H48C48.2652 30 48.5196 30.1054 48.7071 30.2929C48.8946 30.4804 49 30.7348 49 31C49 31.2652 48.8946 31.5196 48.7071 31.7071C48.5196 31.8946 48.2652 32 48 32ZM40 61C39.7348 61 39.4804 60.8946 39.2929 60.7071C39.1054 60.5196 39 60.2652 39 60V41.66C39 41.3948 39.1054 41.1404 39.2929 40.9529C39.4804 40.7654 39.7348 40.66 40 40.66C40.2652 40.66 40.5196 40.7654 40.7071 40.9529C40.8946 41.1404 41 41.3948 41 41.66V57.2L43 54.75V42.89C43 42.6248 43.1054 42.3704 43.2929 42.1829C43.4804 41.9954 43.7348 41.89 44 41.89C44.2652 41.89 44.5196 41.9954 44.7071 42.1829C44.8946 42.3704 45 42.6248 45 42.89V55.11C44.9981 55.3402 44.9169 55.5627 44.77 55.74L40.77 60.63C40.6769 60.7447 40.5596 60.8374 40.4265 60.9014C40.2934 60.9653 40.1477 60.999 40 61Z" fill="#ED1651"/>
<path d="M48 60.9999C47.8523 60.9989 47.7066 60.9653 47.5735 60.9013C47.4404 60.8373 47.3231 60.7446 47.23 60.6299L43.23 55.7399C43.0831 55.5627 43.0019 55.3401 43 55.1099V42.8899C43 42.6247 43.1054 42.3703 43.2929 42.1828C43.4804 41.9953 43.7348 41.8899 44 41.8899C44.2652 41.8899 44.5196 41.9953 44.7071 42.1828C44.8946 42.3703 45 42.6247 45 42.8899V54.7499L47 57.1999V41.6599C47 41.3947 47.1054 41.1403 47.2929 40.9528C47.4804 40.7653 47.7348 40.6599 48 40.6599C48.2652 40.6599 48.5196 40.7653 48.7071 40.9528C48.8946 41.1403 49 41.3947 49 41.6599V59.9999C49 60.2651 48.8946 60.5195 48.7071 60.707C48.5196 60.8946 48.2652 60.9999 48 60.9999Z" fill="#ED1651"/>
</svg>
