<svg width="646" height="646" viewBox="0 0 646 646" fill="none" xmlns="http://www.w3.org/2000/svg">
<path d="M473.215 482.256C473.215 505.728 454.128 524.756 430.583 524.756H207.258C183.712 524.756 164.626 505.728 164.626 482.256V255.243H473.215V482.256Z" stroke="#ED1651" stroke-width="15"/>
<path d="M132.912 221.771H503.058V254.19H132.912V221.771Z" stroke="#ED1651" stroke-width="15"/>
<path d="M200.12 221.719H245.259V32.001C245.259 22.336 237.4 14.501 227.705 14.501H217.674C207.979 14.501 200.12 22.336 200.12 32.001V221.719Z" stroke="#ED1651" stroke-width="15"/>
<path d="M391.314 221.719H436.453V32.001C436.453 22.336 428.594 14.501 418.899 14.501H408.868C399.173 14.501 391.314 22.336 391.314 32.001V221.719Z" stroke="#ED1651" stroke-width="15"/>
<line y1="-5" x2="116.41" y2="-5" transform="matrix(0.00804056 0.999968 -0.999968 0.00799085 318.92 519.093)" stroke="#ED1651" stroke-width="10"/>
<line y1="-5" x2="202.696" y2="-5" transform="matrix(0.999984 -0.00571571 0.00575126 0.999983 216.638 308.874)" stroke="#ED1651" stroke-width="10"/>
<line y1="-5" x2="202.696" y2="-5" transform="matrix(0.999984 -0.00571571 0.00575126 0.999983 216.638 370.985)" stroke="#ED1651" stroke-width="10"/>
<line y1="-5" x2="202.696" y2="-5" transform="matrix(0.999984 -0.00571571 0.00575126 0.999983 218.042 433.096)" stroke="#ED1651" stroke-width="10"/>
</svg>
