<svg width="32" height="32" viewBox="0 0 32 32" fill="none" xmlns="http://www.w3.org/2000/svg">
<path d="M5.96481 2.00209C5.94504 2.00292 5.92534 2.00492 5.90581 2.00809H2.50781C2.3752 2.00809 2.24803 2.06076 2.15426 2.15453C2.06049 2.2483 2.00781 2.37548 2.00781 2.50809C2.00781 2.64069 2.06049 2.76787 2.15426 2.86164C2.24803 2.95541 2.3752 3.00809 2.50781 3.00809H5.59481L6.20881 5.55709C6.21067 5.56379 6.21267 5.57046 6.21481 5.57709L9.13981 17.7551L10.4348 23.1451C8.96981 23.5631 7.88481 24.9031 7.88481 26.4991C7.88481 28.4261 9.45681 29.9991 11.3838 29.9991C13.3098 29.9991 14.8838 28.4261 14.8838 26.4991C14.8838 25.5261 14.4808 24.6461 13.8368 24.0111H20.8068C20.4758 24.3355 20.2129 24.7226 20.0333 25.1497C19.8537 25.5769 19.761 26.0357 19.7608 26.4991C19.7608 28.4261 21.3338 29.9991 23.2608 29.9991C24.1882 29.997 25.077 29.6275 25.7326 28.9715C26.3882 28.3155 26.7572 27.4265 26.7588 26.4991C26.7588 24.7211 25.4158 23.2591 23.6958 23.0421C23.6781 23.0357 23.6601 23.0304 23.6418 23.0261C23.6097 23.0179 23.5769 23.0128 23.5438 23.0111C23.5322 23.01 23.5205 23.0093 23.5088 23.0091H23.3588C23.3248 23.0081 23.2938 22.9991 23.2608 22.9991C23.2268 22.9991 23.1958 23.0081 23.1628 23.0091H11.4828C11.4648 23.0091 11.4468 23.0031 11.4288 23.0031L10.2238 17.9851H25.6008C25.7061 17.9848 25.8086 17.9513 25.8937 17.8893C25.9788 17.8274 26.0422 17.7402 26.0748 17.6401L29.9738 5.63209C29.9981 5.55711 30.0043 5.47747 29.9919 5.39964C29.9796 5.32182 29.949 5.24802 29.9027 5.18426C29.8564 5.1205 29.7956 5.06859 29.7255 5.03276C29.6553 4.99693 29.5776 4.97819 29.4988 4.97809H7.70081L7.09381 4.95409L6.47681 2.39009C6.47302 2.37319 6.46834 2.3565 6.46281 2.34009C6.42794 2.23713 6.36046 2.14834 6.2706 2.08716C6.18074 2.02599 6.07339 1.99577 5.96481 2.00109V2.00209ZM7.33481 5.96509L7.66981 5.97909C7.67681 5.97923 7.68381 5.97923 7.69081 5.97909H28.8108L27.1858 10.9861H16.6018C16.5848 10.9852 16.5678 10.9852 16.5508 10.9861C16.4852 10.9894 16.4208 11.0056 16.3614 11.0337C16.302 11.0619 16.2487 11.1015 16.2046 11.1502C16.1605 11.199 16.1264 11.2559 16.1043 11.3178C16.0822 11.3798 16.0725 11.4454 16.0758 11.5111C16.0791 11.5767 16.0953 11.6411 16.1234 11.7005C16.1516 11.7599 16.1912 11.8132 16.2399 11.8573C16.2887 11.9014 16.3456 11.9355 16.4076 11.9576C16.4695 11.9797 16.5352 11.9894 16.6008 11.9861H26.8608L25.2378 16.9881H10.0858C10.0523 16.9874 10.0188 16.9901 9.98581 16.9961L7.33481 5.96509ZM11.2638 24.0121H11.5058C12.1468 24.0397 12.7522 24.314 13.1956 24.7777C13.639 25.2414 13.8859 25.8585 13.8848 26.5001C13.8848 27.8871 12.7708 29.0001 11.3848 29.0001C11.0563 29.0011 10.7308 28.9372 10.4272 28.8119C10.1235 28.6866 9.84759 28.5025 9.61539 28.2701C9.38319 28.0377 9.19928 27.7617 9.07423 27.4579C8.94919 27.1541 8.88549 26.8286 8.88681 26.5001C8.88543 25.8588 9.13202 25.2418 9.57502 24.7781C10.018 24.3144 10.6231 24.04 11.2638 24.0121ZM23.1408 24.0121H23.3828C24.0235 24.04 24.6286 24.3144 25.0716 24.7781C25.5146 25.2418 25.7612 25.8588 25.7598 26.5001C25.7611 26.8286 25.6974 27.1541 25.5724 27.4579C25.4473 27.7617 25.2634 28.0377 25.0312 28.2701C24.799 28.5025 24.5231 28.6866 24.2195 28.8119C23.9158 28.9372 23.5903 29.0011 23.2618 29.0001C22.9332 29.001 22.6077 28.937 22.304 28.8117C22.0003 28.6864 21.7243 28.5022 21.492 28.2699C21.2597 28.0376 21.0755 27.7616 20.9502 27.4579C20.8249 27.1542 20.7609 26.8286 20.7618 26.5001C20.7607 25.8585 21.0077 25.2414 21.451 24.7777C21.8944 24.314 22.4999 24.0397 23.1408 24.0121Z" fill="#ED1651"/>
</svg>
