<svg width="80" height="80" viewBox="0 0 80 80" fill="none" xmlns="http://www.w3.org/2000/svg">
<path d="M12 34.1731H9.656V38.1731H12V54.4401H21.766C22.648 57.6861 25.613 60.0831 29.134 60.0831C32.655 60.0831 35.62 57.6861 36.503 54.4401H55.799C56.681 57.6861 59.646 60.0831 63.167 60.0831C66.688 60.0831 69.653 57.6861 70.535 54.4401H75V34.9832L68.873 22.7281H54.439V15.5771H12V24.1731H5V28.1731H12V34.1731ZM29.134 56.0831C27.125 56.0831 25.491 54.4491 25.491 52.4401C25.491 50.4311 27.125 48.7971 29.134 48.7971C31.143 48.7971 32.777 50.4311 32.777 52.4401C32.777 54.4491 31.143 56.0831 29.134 56.0831ZM63.167 56.0831C61.158 56.0831 59.524 54.4491 59.524 52.4401C59.524 50.4311 61.158 48.7971 63.167 48.7971C65.175 48.7971 66.81 50.4311 66.81 52.4401C66.81 54.4491 65.175 56.0831 63.167 56.0831ZM69.764 33.4552H62V26.7281H66.4L69.764 33.4552ZM58 26.7281V37.4552H71V50.4401H70.535C69.653 47.1941 66.688 44.7971 63.167 44.7971C59.646 44.7971 56.681 47.1941 55.798 50.4401H54.44V26.7281H58ZM16 19.5771H50.44V50.4401H36.502C35.619 47.1941 32.655 44.7971 29.133 44.7971C25.611 44.7971 22.647 47.1941 21.765 50.4401H16V38.1731H24.344V34.1731H16V28.1731H19.688V24.1731H16V19.5771ZM7 60.4231H21.688V64.4231H7V60.4231Z" fill="#ED1651"/>
</svg>
