<svg width="80" height="80" viewBox="0 0 80 80" fill="none" xmlns="http://www.w3.org/2000/svg">
<path d="M22.002 67.067L39.316 71.679C41.7762 72.3358 44.3944 72.0266 46.634 70.815L71.992 57.131C73.1581 56.4988 74.0692 55.4823 74.5706 54.2543C75.0719 53.0263 75.1325 51.6626 74.742 50.395C74.286 48.92 73.28 47.717 71.911 47.005C70.542 46.293 68.978 46.165 67.508 46.64L51.186 51.92C50.5347 51.2849 49.748 50.8056 48.885 50.518L34.862 45.843C32.861 45.176 30.889 45.125 28.982 45.075L22.002 45.023V42.015H5V70.015H22.002V67.067ZM28.159 49.053L28.877 49.073C30.639 49.119 32.16 49.159 33.597 49.638L47.62 54.313C48.1178 54.4773 48.5325 54.8283 48.7768 55.2921C49.0211 55.756 49.076 56.2965 48.93 56.8C48.7858 57.3102 48.4469 57.7433 47.9864 58.0061C47.5259 58.2689 46.9806 58.3403 46.468 58.205L30.472 54.06L29.469 57.932L45.465 62.076C45.9679 62.2066 46.4854 62.2728 47.005 62.273C48.311 62.2727 49.5812 61.8459 50.6224 61.0574C51.6636 60.2689 52.4187 59.162 52.773 57.905C53.001 57.115 53.059 56.315 52.972 55.546L68.74 50.445C68.9575 50.3739 69.1871 50.3471 69.4151 50.366C69.6431 50.3848 69.8651 50.4491 70.068 50.555C70.481 50.77 70.784 51.133 70.922 51.577C71.0397 51.9594 71.0213 52.3708 70.87 52.7412C70.7187 53.1117 70.4438 53.4183 70.092 53.609L44.734 67.295C43.3909 68.0229 41.8199 68.2087 40.344 67.814L22.002 62.928V49.019L28.159 49.053ZM18.002 66.015H9V46.015H18.002V66.015ZM26.016 38.015L70.016 38.013V8.05796L26.016 7.98096V38.015ZM30.016 11.988L66.016 12.051V34.013L30.016 34.015V11.988Z" fill="#ED1651"/>
<path d="M48.0162 18.313C48.9012 18.313 49.6222 18.917 49.6222 19.659H53.6222C53.6222 17.384 52.1212 15.441 50.0162 14.671V13.636H46.0162V14.671C43.9102 15.441 42.4092 17.384 42.4092 19.659C42.4092 22.607 44.9242 25.006 48.0162 25.006C48.9012 25.006 49.6222 25.61 49.6222 26.352C49.6222 27.095 48.9022 27.699 48.0162 27.699C47.1302 27.699 46.4092 27.095 46.4092 26.352H42.4092C42.4092 28.628 43.9102 30.571 46.0162 31.341V32.376H50.0162V31.341C52.1212 30.571 53.6222 28.628 53.6222 26.352C53.6222 23.404 51.1072 21.006 48.0162 21.006C47.1302 21.006 46.4092 20.402 46.4092 19.659C46.4092 18.917 47.1292 18.313 48.0162 18.313ZM57.6712 21.013H61.9992V25.013H57.6712V21.013ZM34.0322 21.013H38.3602V25.013H34.0322V21.013Z" fill="#ED1651"/>
</svg>
