<svg width="77" height="21" viewBox="0 0 77 21" fill="none" xmlns="http://www.w3.org/2000/svg">
<path d="M16.2875 15.4546C15.0518 17.0935 13.2297 18.1906 11.2031 18.5158C9.17644 18.8411 7.10255 18.3693 5.41605 17.1993C3.72955 16.0293 2.56136 14.252 2.15627 12.2398C1.75119 10.2276 2.14066 8.13669 3.24307 6.40527" stroke="black" stroke-width="3.8383" stroke-linecap="round"/>
<path d="M7.12536 2.95961C8.68231 2.48636 10.347 2.50265 11.8944 3.00629C13.4418 3.50993 14.7972 4.47662 15.7773 5.77563" stroke="black" stroke-width="3.8383" stroke-linecap="round"/>
<path d="M4.10938 15.4355L15.6012 5.97168" stroke="black" stroke-width="3.8383" stroke-linecap="round"/>
<path d="M35.1148 15.6416C34.094 16.9147 32.7059 17.8425 31.1392 18.299C29.5726 18.7555 27.9033 18.7185 26.3585 18.193C24.8136 17.6674 23.468 16.6789 22.5047 15.3618C21.5414 14.0447 21.007 12.4629 20.9743 10.8314C20.9415 9.19991 21.412 7.59792 22.3217 6.24321C23.2314 4.88851 24.5362 3.8468 26.0588 3.25972C27.5813 2.67264 29.2477 2.56868 30.8314 2.96194C32.4151 3.35521 33.8393 4.22663 34.9104 5.45775" stroke="black" stroke-width="3.8383" stroke-linecap="round"/>
<path d="M54.3394 15.6416C53.3186 16.9147 51.9305 17.8425 50.3638 18.299C48.7972 18.7555 47.1279 18.7185 45.5831 18.193C44.0382 17.6674 42.6926 16.6789 41.7293 15.3618C40.766 14.0447 40.2316 12.4629 40.1989 10.8314C40.1661 9.19991 40.6366 7.59792 41.5463 6.24321C42.456 4.88851 43.7608 3.8468 45.2834 3.25972C46.8059 2.67264 48.4723 2.56868 50.056 2.96194C51.6397 3.35521 53.0639 4.22663 54.135 5.45775" stroke="black" stroke-width="3.8383" stroke-linecap="round"/>
<path d="M73.4038 6.75612C74.3081 8.35299 74.6317 10.2137 74.3195 12.0221C74.0074 13.8305 73.0788 15.475 71.6914 16.6763C70.3041 17.8776 68.5437 18.5616 66.7093 18.612C64.8748 18.6624 63.0795 18.0761 61.6283 16.9528C60.1771 15.8295 59.1596 14.2384 58.7487 12.4499C58.3377 10.6613 58.5586 8.78568 59.3739 7.14157C60.1891 5.49746 61.5485 4.1863 63.2209 3.43087C64.8933 2.67544 66.7757 2.52233 68.5483 2.99755" stroke="black" stroke-width="3.8383" stroke-linecap="round"/>
</svg>
