<?xml version="1.0" encoding="utf-8"?>
    <svg xmlns="http://www.w3.org/2000/svg" xmlns:xlink="http://www.w3.org/1999/xlink">
        <symbol viewBox="0 0 15 19" id="icon-location" xmlns="http://www.w3.org/2000/svg">
         <path d="m7.456 16.007 4.1-4.1a5.799 5.799 0 1 0-8.2 0l4.1 4.1Zm0 2.343-5.272-5.272a7.456 7.456 0 1 1 10.544 0L7.456 18.35Zm0-8.887a1.657 1.657 0 1 0 0-3.314 1.657 1.657 0 0 0 0 3.314Zm0 1.656a3.314 3.314 0 1 1 0-6.627 3.314 3.314 0 0 1 0 6.627Z" />
    </symbol>
    <symbol viewBox="0 0 22 21" id="icon-like" xmlns="http://www.w3.org/2000/svg">
    <path d="M15.676.616c3.284 0 5.946 2.703 5.946 6.487 0 7.567-8.108 11.891-10.811 13.513C8.108 18.994 0 14.67 0 7.103 0 3.319 2.703.616 5.946.616c2.01 0 3.784 1.081 4.865 2.162 1.08-1.08 2.854-2.162 4.865-2.162Zm-3.856 16.87a29.145 29.145 0 0 0 2.617-1.84c3.223-2.562 5.022-5.362 5.022-8.543 0-2.552-1.661-4.325-3.783-4.325-1.164 0-2.422.616-3.337 1.529l-1.528 1.529-1.529-1.53c-.914-.912-2.173-1.528-3.336-1.528-2.097 0-3.784 1.79-3.784 4.325 0 3.182 1.801 5.981 5.022 8.543A29.09 29.09 0 0 0 9.8 17.484c.323.204.643.4 1.01.619.366-.219.686-.415 1.01-.618Z" />
</symbol>
    <symbol viewBox="0 0 18 18" id="icon-search" xmlns="http://www.w3.org/2000/svg">
        <path d="M14.205 12.952 18 16.746 16.746 18l-3.794-3.795a7.94 7.94 0 0 1-4.977 1.745A7.978 7.978 0 0 1 0 7.975 7.978 7.978 0 0 1 7.975 0a7.978 7.978 0 0 1 7.975 7.975 7.94 7.94 0 0 1-1.745 4.977Zm-1.778-.658a6.182 6.182 0 0 0 1.75-4.32 6.2 6.2 0 0 0-6.202-6.202 6.2 6.2 0 0 0-6.203 6.203 6.2 6.2 0 0 0 6.203 6.202 6.182 6.182 0 0 0 4.32-1.75l.132-.133Z" fill="#C6C9D5"/>
    </symbol>
    </svg>