<svg width="146" height="17" viewBox="0 0 146 17" fill="none" xmlns="http://www.w3.org/2000/svg">
<path d="M101.199 16.6162H100.639L92.7793 0.827794H96.2387L100.969 10.8294H101.005L105.729 0.827794H109.078L101.199 16.6162Z" fill="black"/>
<path d="M30.5127 0.826004V3.40346H22.9083V7.29245H30.0145V9.77563H22.9083V13.7309H31.2073V16.3076H19.8984V0.826004H30.5127Z" fill="black"/>
<path d="M67.8289 0.826004V3.40346H60.2264V7.40406H67.3307V9.88677H60.2264V13.7309H68.5218V16.3076H57.2148V0.826004H67.8289Z" fill="black"/>
<path d="M124.915 0.826004V3.40346H117.312V7.43588H124.418V9.91883H117.312V13.7309H125.61V16.3076H114.301V0.826004H124.915Z" fill="black"/>
<path d="M132.15 16.3076V0.826004H137.409C142.67 0.826004 145.364 4.03109 145.364 8.56693C145.364 13.103 142.67 16.3076 137.409 16.3076H132.15ZM137.409 13.7684C140.83 13.7684 142.372 12.0449 142.372 8.56693C142.372 5.08876 140.83 3.35644 137.409 3.35644H135.161V13.7684H137.409Z" fill="black"/>
<path d="M49.6514 2.4761L48.2323 4.4504C46.9716 3.62639 45.6387 3.15098 44.0076 3.15098C41.7592 3.15098 41.091 4.0118 41.091 4.82654C41.091 7.59421 50.1078 5.98585 50.1078 11.4597C50.1078 14.4468 47.5266 16.5227 43.8786 16.5227C41.3472 16.5227 39.1644 15.7403 37.3887 13.7443L39.0099 11.8646C40.5014 13.2632 41.995 13.9711 43.9256 13.9711C46.1699 13.9711 47.2742 12.894 47.2742 11.7145C47.2742 8.4016 38.0248 10.6357 38.0248 4.98161C38.0248 2.49937 40.5125 0.616266 44.0472 0.616266C46.3241 0.616266 48.4233 1.41795 49.6514 2.4761Z" fill="black"/>
<path d="M6.34415 8.27366H3.00822V3.30396H6.31399C8.21063 3.30396 9.08498 4.23174 9.08498 5.68694C9.08498 7.50806 7.89979 8.27366 6.34415 8.27366ZM13.67 16.2537L13.4071 13.9835C13.173 14.0327 12.8887 14.0571 12.5691 14.0571C11.3051 14.0571 10.6715 13.6706 9.91279 12.4754C9.63139 12.0318 9.32506 11.492 9.06337 11.0686C8.76393 10.597 8.56873 10.3911 8.27499 10.204C10.4958 9.67209 12.0583 8.04094 12.0583 5.58126C12.0583 2.82998 10.0864 0.827901 6.31399 0.827901H0V16.3076H3.00822V10.6255H4.36107C5.12761 10.6255 5.4755 10.9017 5.79987 11.4011C6.11119 11.8805 7.17457 13.6409 7.17457 13.6409C8.52005 15.7695 10.0116 16.4812 12.0153 16.4812C12.7367 16.4812 13.3361 16.3606 13.67 16.2537Z" fill="black"/>
<path d="M82.2677 8.27366H78.9321V3.30396H82.2381C84.1345 3.30396 85.0083 4.23174 85.0083 5.68694C85.0083 7.50806 83.8234 8.27366 82.2677 8.27366ZM89.5936 16.2537L89.3305 13.9835C89.0963 14.0327 88.8125 14.0571 88.4924 14.0571C87.2282 14.0571 86.5951 13.6706 85.8361 12.4754C85.5552 12.0318 85.2482 11.492 84.9865 11.0686C84.6873 10.597 84.4921 10.3911 84.1986 10.204C86.4191 9.67209 87.9819 8.04094 87.9819 5.58126C87.9819 2.82998 86.0102 0.827901 82.2381 0.827901H75.9238V16.3076H78.9321V10.6255H80.2844C81.0512 10.6255 81.3991 10.9017 81.7232 11.4011C82.035 11.8805 83.0979 13.6409 83.0979 13.6409C84.4434 15.7695 85.9354 16.4812 87.9387 16.4812C88.6599 16.4812 89.2595 16.3606 89.5936 16.2537Z" fill="black"/>
</svg>
