<svg width="18" height="20" viewBox="0 0 18 20" fill="none" xmlns="http://www.w3.org/2000/svg">
<path d="M8.99817 14.7789C7.33541 14.7789 5.95101 13.2325 5.8464 11.2577C5.83896 11.1119 5.89108 10.9694 5.99179 10.8637C6.0925 10.758 6.23186 10.6978 6.37761 10.6978H11.618C11.7641 10.6978 11.9035 10.7577 12.0038 10.8637C12.1042 10.9697 12.1567 11.1119 12.1492 11.2577C12.0457 13.2325 10.6613 14.7789 8.99817 14.7789ZM6.98541 11.7616C7.23824 12.8928 8.05136 13.7151 8.99817 13.7151C9.94497 13.7151 10.7581 12.8931 11.0109 11.7616H6.98541Z" fill="#ED1651"/>
<path d="M13.5492 19.0441H10.1435C9.84953 19.0441 9.61159 18.8058 9.61159 18.5122V17.7955C9.61159 17.6115 9.46195 17.4622 9.27826 17.4622H8.67223C8.48819 17.4622 8.3389 17.6118 8.3389 17.7955V18.5122C8.3389 18.8058 8.10096 19.0441 7.80699 19.0441H4.40133C4.19282 19.0441 4.00346 18.9221 3.91729 18.7324C3.16729 17.0849 2.77084 15.137 2.77084 13.0998C2.77084 10.8158 3.2875 8.60762 4.20878 6.87855C4.17119 6.86082 4.13502 6.83919 4.10169 6.81224L0.821911 4.2048C0.698152 4.10658 0.624394 3.958 0.621202 3.79949C0.618011 3.64098 0.685386 3.48956 0.805244 3.38601C0.90418 3.30055 3.23963 1.2846 4.1602 0.719001C4.55807 0.474321 4.98821 0.350209 5.43856 0.350209C6.51019 0.350209 7.53075 1.0651 8.0389 2.17148C8.04245 2.17893 8.05202 2.20197 8.05486 2.20942C8.13855 2.41616 8.45202 3.08991 8.9772 3.08991C9.39741 3.08991 9.75805 2.5229 9.90485 2.18779C10.4205 1.06474 11.441 0.349854 12.5126 0.349854C12.963 0.349854 13.3931 0.473967 13.7907 0.718647C14.7112 1.2846 17.0467 3.3002 17.1456 3.38566C17.2655 3.4892 17.3328 3.64062 17.3296 3.79913C17.3265 3.95729 17.2527 4.10587 17.1289 4.20445L13.8492 6.81189C13.8158 6.83848 13.78 6.86047 13.7424 6.8782C14.6633 8.60762 15.18 10.8158 15.18 13.0995C15.18 15.1367 14.7836 17.0842 14.0336 18.7321C13.947 18.9225 13.7577 19.0441 13.5492 19.0441ZM10.6758 17.9803H13.2009C13.8006 16.5374 14.1165 14.858 14.1165 13.0998C14.1165 10.6115 13.4637 8.23919 12.3258 6.59061C12.2056 6.4165 12.2002 6.18778 12.3112 6.00799C12.4222 5.8282 12.629 5.7321 12.8389 5.76154L13.3669 5.83742L15.9616 3.77466C15.2226 3.14843 13.8424 1.99985 13.2339 1.62574C13.0063 1.48531 12.7637 1.41439 12.513 1.41439C11.8658 1.41439 11.2091 1.89701 10.8793 2.6158C10.7212 2.97679 10.1166 4.15445 8.97755 4.15445C8.17365 4.15445 7.46054 3.57679 7.06905 2.60907C6.74245 1.89737 6.08607 1.41474 5.43891 1.41474C5.18821 1.41474 4.94565 1.48567 4.71764 1.62609C4.10913 2.0002 2.729 3.14878 1.98999 3.77502L4.58502 5.83778L5.11303 5.76225C5.32402 5.73388 5.52934 5.82927 5.64033 6.00905C5.75168 6.18884 5.74565 6.41685 5.62579 6.59132C4.48785 8.23954 3.83502 10.6122 3.83502 13.1002C3.83502 14.8583 4.15062 16.5374 4.75062 17.9806H7.27579V17.7959C7.27579 17.0253 7.90273 16.3987 8.67294 16.3987H9.27897C10.0495 16.3987 10.6761 17.0257 10.6761 17.7959V17.9803H10.6758Z" fill="#ED1651"/>
</svg>
