<svg width="25" height="26" viewBox="0 0 25 26" fill="none" xmlns="http://www.w3.org/2000/svg">
<path d="M10.0598 7.5594C9.47052 8.37657 8.33035 8.56129 7.51318 7.97199C6.69601 7.3827 6.51128 6.24253 7.10058 5.42536C7.68988 4.60819 8.83005 4.42346 9.64722 5.01276C10.4644 5.60206 10.6491 6.74223 10.0598 7.5594Z" stroke="#ED1651" stroke-width="0.912113"/>
<path d="M15.5247 7.00105C14.9354 7.81822 13.7952 8.00294 12.978 7.41365C12.1609 6.82435 11.9761 5.68418 12.5654 4.86701C13.1547 4.04984 14.2949 3.86511 15.1121 4.45441C15.9292 5.04371 16.114 6.18388 15.5247 7.00105Z" stroke="#ED1651" stroke-width="0.912113"/>
<path d="M19.9622 10.202C19.3729 11.0191 18.2327 11.2039 17.4155 10.6146C16.5984 10.0253 16.4136 8.88511 17.0029 8.06794C17.5922 7.25077 18.7324 7.06604 19.5496 7.65534C20.3667 8.24464 20.5515 9.38481 19.9622 10.202Z" stroke="#ED1651" stroke-width="0.912113"/>
<path d="M21.1575 15.5621C20.5682 16.3793 19.428 16.564 18.6108 15.9747C17.7937 15.3854 17.6089 14.2452 18.1982 13.428C18.7875 12.6109 19.9277 12.4261 20.7449 13.0154C21.562 13.6047 21.7468 14.7449 21.1575 15.5621Z" stroke="#ED1651" stroke-width="0.912113"/>
<path d="M14.7651 17.3451L14.7665 17.3631L14.7694 17.3809C14.7858 17.4821 14.8025 17.5832 14.8192 17.684C14.9437 18.4367 15.0662 19.178 15.0443 19.8872C15.0203 20.6639 14.8227 21.3504 14.2844 21.9112C13.6223 22.4221 12.7273 22.6986 11.8155 22.3089C11.7281 22.2667 11.5709 22.1517 11.3241 21.935C11.1221 21.7575 10.8895 21.5388 10.6221 21.2874C10.5713 21.2397 10.5192 21.1907 10.4659 21.1406C9.80537 20.5208 8.97451 19.754 8.03113 19.0737L7.89797 18.9777C6.9542 18.2971 5.96256 17.7525 5.16556 17.3226C5.10873 17.292 5.05305 17.262 4.99855 17.2326C4.66644 17.0538 4.37828 16.8986 4.14161 16.76C3.85592 16.5926 3.69969 16.4795 3.63565 16.4109C2.975 15.6675 2.95069 14.7368 3.2306 13.9416C3.59324 13.2601 4.18238 12.8584 4.91272 12.5916C5.57862 12.3483 6.32015 12.2306 7.07282 12.1112C7.17462 12.095 7.27662 12.0789 7.37867 12.0623L7.39523 12.0596L7.41155 12.0557C8.17925 11.8726 8.8703 11.7017 9.57956 11.5264C9.97492 11.4286 10.3759 11.3294 10.799 11.226C11.4134 11.0824 12.0324 11.0161 12.5595 11.1759L12.5595 11.176L12.5676 11.1783C12.6467 11.2007 12.7199 11.2283 12.7877 11.2606L12.7877 11.2607L12.7919 11.2626C12.9649 11.3429 13.1298 11.4602 13.3284 11.6034C13.5251 11.7452 13.6928 11.8674 13.8255 11.9988C13.8764 12.0521 13.9246 12.1117 13.9699 12.1783L13.9698 12.1783L13.9747 12.1852C14.294 12.6366 14.433 13.2528 14.4828 13.8688L14.4828 13.8688L14.4831 13.8717C14.5514 14.6547 14.6069 15.3575 14.6642 16.0829C14.6964 16.4904 14.7292 16.905 14.7651 17.3451Z" stroke="#ED1651" stroke-width="0.912113"/>
</svg>
