<svg width="23" height="23" viewBox="0 0 23 23" fill="none" xmlns="http://www.w3.org/2000/svg">
<path d="M20.6608 6.18062H9.77669L8.65913 3.75114H8.87778C9.14503 3.75114 9.36368 3.53248 9.36368 3.26524V0.835751C9.36368 0.568507 9.14503 0.349854 8.87778 0.349854H3.04701C2.77977 0.349854 2.56111 0.568507 2.56111 0.835751V3.26524C2.56111 3.53248 2.77977 3.75114 3.04701 3.75114H3.26566L0.90906 8.90165C0.90906 8.92595 0.909061 8.92595 0.884766 8.95024C0.884766 8.97454 0.884766 8.97454 0.884766 8.99883C0.884766 9.02313 0.884766 9.02313 0.884766 9.04742C0.884766 9.07172 0.884766 9.09601 0.884766 9.09601V20.2717C0.884766 20.5389 1.10342 20.7576 1.37066 20.7576H9.67951C10.1411 21.6322 11.0643 22.2152 12.109 22.2152H12.6192C13.0079 22.2152 13.3966 22.1424 13.7611 21.9723C14.1255 22.1181 14.4899 22.2152 14.9029 22.2152H15.4131C16.4821 22.2152 17.4053 21.6322 17.8426 20.7576H20.7094C20.9766 20.7576 21.1953 20.5389 21.1953 20.2717V10.2622C22.0942 10.0435 22.7745 9.21748 22.7745 8.24569C22.7259 7.10383 21.8027 6.18062 20.6608 6.18062ZM3.53291 1.32165H8.39188V2.77934H3.53291V1.32165ZM10.0925 15.8014C9.63092 16.2873 9.36368 16.919 9.36368 17.5992V19.5428C9.36368 19.6157 9.36368 19.7129 9.36368 19.7858H1.83227V11.8413L3.04701 11.2583L3.0956 11.234C3.65438 10.9667 4.26175 10.8695 4.86913 10.9667C5.18496 11.0153 5.4765 11.0882 5.76804 11.234C6.8856 11.7684 8.14893 11.7684 9.2665 11.234L10.1168 10.8209V15.8014H10.0925ZM10.0925 9.75197L8.87778 10.335L8.82919 10.3593C8.27041 10.6266 7.66304 10.7238 7.05567 10.6266C6.73983 10.578 6.44829 10.5051 6.15675 10.3593C5.03919 9.82486 3.77586 9.82486 2.65829 10.3593L1.83227 10.7481V9.19319L1.88086 9.09601L4.33464 3.75114H7.59015L10.0439 9.09601L10.0925 9.19319V9.75197ZM17.138 19.5428C17.138 20.4903 16.3363 21.2435 15.3645 21.2435H14.8543C14.5385 21.2435 14.2227 21.1706 13.9554 21.0005C13.8825 20.9519 13.8096 20.9519 13.7125 20.9519C13.6153 20.9519 13.5424 20.9762 13.4695 21.0005C13.2023 21.1463 12.8864 21.2435 12.5706 21.2435H12.0604C11.0886 21.2435 10.2869 20.4903 10.2869 19.5428V17.5992C10.2869 16.6517 11.0886 15.8986 12.0604 15.8986H12.5706C12.7893 15.8986 13.0079 15.9472 13.2266 16.0201V16.6274C13.2266 16.8947 13.4452 17.1133 13.7125 17.1133C13.9797 17.1133 14.1984 16.8947 14.1984 16.6274V16.0201C14.3927 15.9472 14.6114 15.8986 14.8543 15.8986H15.3645C16.3363 15.8986 17.138 16.6517 17.138 17.5992V19.5428ZM20.6608 9.33896C20.3936 9.33896 20.1749 9.55761 20.1749 9.82486V19.7858H18.1098C18.1098 19.7129 18.1098 19.6157 18.1098 19.5428V17.5992C18.1098 16.1172 16.8708 14.9268 15.3645 14.9268H14.8543C14.6357 14.9268 14.417 14.9511 14.1984 14.9997V14.4409C14.1984 13.9064 14.6357 13.4691 15.1702 13.4691C15.4374 13.4691 15.6561 13.2504 15.6561 12.9832C15.6561 12.7159 15.4374 12.4973 15.1702 12.4973C14.1012 12.4973 13.2266 13.3719 13.2266 14.4409V14.9997C13.0079 14.9511 12.7893 14.9268 12.5706 14.9268H12.0604C11.696 14.9268 11.3316 14.9997 11.0157 15.1211V9.09601C11.0157 9.07172 11.0157 9.07172 11.0157 9.04742C11.0157 9.02313 11.0157 9.02313 11.0157 8.99883C11.0157 8.97454 11.0157 8.97454 11.0157 8.95024C11.0157 8.92595 11.0157 8.92595 10.9914 8.90165L10.214 7.15242H20.6608C21.2682 7.15242 21.7541 7.63832 21.7541 8.24569C21.7541 8.85306 21.2682 9.33896 20.6608 9.33896ZM5.9624 12.9832C4.74765 12.9832 3.77586 13.955 3.77586 15.1697C3.77586 16.3845 4.74765 17.3563 5.9624 17.3563C7.17714 17.3563 8.14893 16.3845 8.14893 15.1697C8.14893 13.955 7.17714 12.9832 5.9624 12.9832ZM5.9624 16.3845C5.28214 16.3845 4.74765 15.85 4.74765 15.1697C4.74765 14.4895 5.28214 13.955 5.9624 13.955C6.64265 13.955 7.17714 14.4895 7.17714 15.1697C7.17714 15.85 6.64265 16.3845 5.9624 16.3845Z" fill="#ED1651"/>
</svg>
