<svg width="16" height="23" viewBox="0 0 16 23" fill="none" xmlns="http://www.w3.org/2000/svg">
<path d="M15.0708 18.7271C15.1075 18.6683 15.127 18.6004 15.127 18.5312C15.127 15.523 12.9463 11.105 11.6464 8.73924C11.3535 8.20642 11.4178 7.56058 11.8104 7.09428L12.1193 6.72747C12.128 6.71737 12.1359 6.70692 12.1433 6.69592C12.4957 6.17248 12.5918 5.5261 12.4068 4.9228L11.9389 3.39752L11.9148 3.30938C11.7305 2.63596 11.6956 1.94019 11.8111 1.2419C11.8378 1.07986 11.7543 0.919616 11.6062 0.848778C11.1837 0.646536 10.7148 0.480526 10.2125 0.355432C10.2027 0.352931 10.1931 0.355229 10.1832 0.353562C10.164 0.350295 10.1453 0.350047 10.1255 0.349867C10.097 0.349664 10.0698 0.351759 10.0424 0.358068C10.0329 0.360164 10.0236 0.357978 10.0142 0.36084C10.0046 0.363904 9.05418 0.652305 7.8301 0.652305C6.59593 0.652305 5.54723 0.382109 5.53678 0.379405C5.52855 0.377242 5.52062 0.379563 5.5124 0.377986C5.48662 0.372894 5.46094 0.372871 5.43421 0.373435C5.41254 0.373975 5.39161 0.373502 5.3707 0.377761C5.36347 0.379203 5.35635 0.377332 5.34914 0.379225C4.88319 0.501976 4.44193 0.664021 4.03763 0.860854C3.89001 0.932594 3.80763 1.0932 3.83521 1.25488C3.95688 1.96669 3.91777 2.70644 3.72436 3.38688L3.27229 4.86115C3.07564 5.50194 3.15801 6.1604 3.49814 6.6678C3.50842 6.68295 3.51959 6.69737 3.53203 6.71088L3.82295 7.02993C4.24492 7.49281 4.32675 8.17055 4.02664 8.71617C2.72198 11.0872 0.533203 15.5154 0.533203 18.5312C0.533203 18.6006 0.55267 18.6683 0.589441 18.7271C0.677403 18.8673 2.79841 22.1612 7.8301 22.1612C12.862 22.1612 14.9828 18.8673 15.0708 18.7271ZM9.42401 1.24999C9.37906 1.309 9.33864 1.37114 9.28707 1.4254C8.90169 1.83132 8.38113 2.05664 7.82127 2.06024C7.81676 2.06024 7.81244 2.06024 7.80793 2.06024C7.25312 2.06024 6.73472 1.8416 6.34754 1.44414L6.24768 1.3414C6.22276 1.31585 6.20564 1.28487 6.18223 1.25824C6.62197 1.32676 7.19911 1.39061 7.8301 1.39061C8.45375 1.39061 9.00565 1.32331 9.42401 1.24999ZM7.8301 21.4229C3.60089 21.4229 1.62913 18.927 1.27259 18.4203C1.33027 15.4592 3.66325 10.908 4.67338 9.07199C5.12599 8.2495 5.00342 7.22892 4.36839 6.53244L4.09748 6.2352C3.89668 5.91994 3.85179 5.48951 3.97815 5.07763L4.43238 3.59598C4.6321 2.89372 4.6905 2.14478 4.6038 1.41314C4.80514 1.32626 5.01585 1.24857 5.23378 1.18062C5.35995 1.42864 5.52236 1.65504 5.71865 1.85638L5.81833 1.95894C6.34628 2.50077 7.05214 2.79855 7.80775 2.79855C7.81388 2.79855 7.82001 2.79855 7.82596 2.79855C8.58824 2.79368 9.29734 2.48671 9.82241 1.93407C10.0403 1.70461 10.2154 1.44342 10.3437 1.15592C10.5885 1.2282 10.8223 1.31148 11.0429 1.40467C10.9616 2.1136 11.0149 2.81856 11.2028 3.50441L11.701 5.1391C11.8185 5.52267 11.7603 5.93292 11.5413 6.26801L11.2457 6.61878C10.655 7.32049 10.5582 8.2924 10.9993 9.0947C12.0056 10.9264 14.3299 15.4667 14.3876 18.4201C14.0296 18.9286 12.0581 21.4229 7.8301 21.4229Z" fill="#ED1651"/>
</svg>
