<svg width="92" height="21" viewBox="0 0 92 21" fill="none" xmlns="http://www.w3.org/2000/svg">
<path d="M28.2705 17.6696L25.3238 14.723H24.1423H22.9609V17.029V19.3351H20.8683H18.7758V9.98276V0.630447H24.3416H29.9075L31.6441 2.3671L33.3808 4.10376V7.69094V11.2781L31.9288 12.7301L30.4769 14.182L32.2705 15.9756L34.0641 17.7692L32.6263 19.1927L31.1886 20.6162L28.242 17.6696H28.2705ZM28.6263 10.3102L29.1246 9.82617V7.73365V5.64112L28.5979 5.1002L28.0712 4.55927H25.5231H22.9751V7.67671V10.7941H25.5516H28.1281L28.6263 10.3102ZM1.72242 17.6127L0 15.876V9.98276V4.08952L1.73665 2.35286L3.47331 0.616211H7.3452H11.2171L12.911 2.29592L14.605 3.97564V6.09664V8.21763H12.5125H10.4199V6.90802V5.59842L9.879 5.07173L9.33808 4.54504H7.28826H5.23843L4.75445 5.04326L4.27046 5.54148V9.98276V14.424L4.76868 14.908L5.2669 15.392H7.35943H9.45196L9.95018 14.908L10.4484 14.424V13.2425V12.061H12.5409H14.6335V14.0112V15.9614L12.9395 17.6411L11.2456 19.3208H7.35943H3.47331L1.75089 17.5842L1.72242 17.6127ZM39.2598 16.6304L36.5552 13.9116V11.4774V9.04325L40.7687 4.84397L44.9822 0.644678H47.331H49.6797L52.427 3.40625L55.1744 6.16781V8.60198V11.0361L51.0036 15.1927L46.8327 19.3493H44.3986H41.9644L39.2598 16.6304ZM48.0996 12.1892L51.1459 9.12866V8.40269V7.67671L49.6797 6.19628L48.2135 4.71585H47.4875H46.7616L43.6584 7.80482L40.5552 10.8938V11.5771V12.2603L42.0214 13.7408L43.4875 15.2212H44.2562H45.0249L48.0712 12.1607L48.0996 12.1892ZM58.3203 9.99699V0.644678H63.8861H69.452L71.1459 2.3244L72.8399 4.00411V7.89023V11.7764L71.1459 13.4561L69.452 15.1358H65.9786H62.5053V17.2283V19.3208H60.4128H58.3203V9.96852V9.99699ZM68.1566 10.7514L68.6548 10.2675V7.96141V5.65536L68.1281 5.11443L67.6014 4.5735H65.0534H62.5053V7.90446V11.2354H65.0819H67.6584L68.1566 10.7514ZM76.7829 10.0255L76.8114 0.701621L82.363 0.67315L87.9146 0.644678L89.6512 2.3671L91.3879 4.08952V7.93294V11.7764L89.694 13.4561L88 15.1358H84.5267H81.0534V17.2283V19.3208H78.9182H76.7829L76.8114 9.99699L76.7829 10.0255ZM86.6904 10.7514L87.1886 10.2675V7.96141V5.65536L86.6619 5.11443L86.1352 4.5735H83.5872H81.0391V7.90446V11.2354H83.6157H86.1922L86.6904 10.7514Z" fill="black"/>
</svg>
