<svg width="17" height="20" viewBox="0 0 17 20" fill="none" xmlns="http://www.w3.org/2000/svg">
<path d="M14.6878 1.34985H1.55887C1.04095 1.34985 0.621094 1.76971 0.621094 2.28763V17.7422C0.621094 18.2601 1.04095 18.68 1.55887 18.68H14.6878C15.2057 18.68 15.6255 18.2601 15.6255 17.7422V2.28763C15.6255 1.76971 15.2057 1.34985 14.6878 1.34985Z" stroke="#ED1651" stroke-width="0.937778" stroke-miterlimit="10"/>
<path d="M1.55887 1.34985H14.6878C14.9365 1.34985 15.175 1.44865 15.3509 1.62452C15.5267 1.80039 15.6255 2.03892 15.6255 2.28763V6.66393H0.621094V2.28763C0.621094 2.03892 0.719895 1.80039 0.895762 1.62452C1.07163 1.44865 1.31016 1.34985 1.55887 1.34985Z" stroke="#ED1651" stroke-width="0.937778" stroke-linecap="round" stroke-linejoin="round"/>
<path d="M8.1239 16.8481C10.4338 16.8481 12.3064 14.9756 12.3064 12.6656C12.3064 10.3557 10.4338 8.48315 8.1239 8.48315C5.81397 8.48315 3.94141 10.3557 3.94141 12.6656C3.94141 14.9756 5.81397 16.8481 8.1239 16.8481Z" stroke="#ED1651" stroke-width="0.937778" stroke-miterlimit="10"/>
<path d="M7.16031 4.00049H2.69336" stroke="#ED1651" stroke-width="0.937778" stroke-linecap="round" stroke-linejoin="round"/>
<path d="M13.3729 4.66661C13.7406 4.66661 14.0387 4.36851 14.0387 4.00078C14.0387 3.63306 13.7406 3.33496 13.3729 3.33496C13.0051 3.33496 12.707 3.63306 12.707 4.00078C12.707 4.36851 13.0051 4.66661 13.3729 4.66661Z" fill="#ED1651"/>
<path d="M11.4959 4.66661C11.8636 4.66661 12.1617 4.36851 12.1617 4.00078C12.1617 3.63306 11.8636 3.33496 11.4959 3.33496C11.1282 3.33496 10.8301 3.63306 10.8301 4.00078C10.8301 4.36851 11.1282 4.66661 11.4959 4.66661Z" fill="#ED1651"/>
<path d="M9.6209 4.66661C9.98862 4.66661 10.2867 4.36851 10.2867 4.00078C10.2867 3.63306 9.98862 3.33496 9.6209 3.33496C9.25318 3.33496 8.95508 3.63306 8.95508 4.00078C8.95508 4.36851 9.25318 4.66661 9.6209 4.66661Z" fill="#ED1651"/>
<path d="M12.3065 12.6658H10.0527" stroke="#ED1651" stroke-width="0.937778" stroke-linecap="round" stroke-linejoin="round"/>
</svg>
