<svg width="23" height="15" viewBox="0 0 23 15" fill="none" xmlns="http://www.w3.org/2000/svg">
<path d="M21.7611 7.00198L17.7038 5.63382L15.6987 1.95391C15.1562 0.963171 14.1183 0.349854 13.0096 0.349854H5.69695C4.56467 0.349854 3.55034 0.963171 3.00779 1.95391L0.908355 5.79894V5.82253C0.884766 5.84612 0.884766 5.86971 0.884766 5.8933V11.6726C0.884766 11.9321 1.09707 12.1444 1.35655 12.1444H3.29086C3.50316 13.2295 4.47031 14.0315 5.60259 14.0315C6.73487 14.0315 7.70202 13.2295 7.91432 12.1444H15.0854C15.2977 13.2295 16.2649 14.0315 17.3972 14.0315C18.5294 14.0315 19.4966 13.2295 19.7089 12.1444H21.6196C21.8791 12.1444 22.0914 11.9321 22.0914 11.6726V7.45018C22.0914 7.23788 21.9734 7.07275 21.7611 7.00198ZM8.64559 1.31701H13.0096C13.788 1.31701 14.4957 1.74161 14.8731 2.4257L16.5715 5.56305H8.64559V1.31701ZM3.83341 2.4257C4.21083 1.74161 4.9185 1.31701 5.69695 1.31701H7.70202V5.56305H2.13499L3.83341 2.4257ZM3.26727 11.2244H1.80474V10.2809H3.69187C3.47957 10.5639 3.33803 10.8706 3.26727 11.2244ZM5.579 13.1116C4.80056 13.1116 4.16365 12.4747 4.16365 11.6962C4.16365 10.9178 4.80056 10.2809 5.579 10.2809C6.35744 10.2809 6.99435 10.9178 6.99435 11.6962C6.99435 12.4747 6.35744 13.1116 5.579 13.1116ZM17.3736 13.1116C16.5951 13.1116 15.9582 12.4747 15.9582 11.6962C15.9582 10.9178 16.5951 10.2809 17.3736 10.2809C18.152 10.2809 18.7889 10.9178 18.7889 11.6962C18.7889 12.4747 18.152 13.1116 17.3736 13.1116ZM21.1478 11.2244H19.6853C19.473 10.1393 18.5058 9.33731 17.3736 9.33731C16.2413 9.33731 15.2741 10.1393 15.0618 11.2244H7.89073C7.67843 10.1393 6.71128 9.33731 5.579 9.33731H1.80474V6.50661H17.3028L21.1478 7.78043V11.2244Z" fill="#ED1651"/>
</svg>
