<svg width="19" height="21" viewBox="0 0 19 21" fill="none" xmlns="http://www.w3.org/2000/svg">
<path d="M10.1556 3.13962C12.8259 3.13962 14.9982 5.3119 14.9982 7.98215C14.9982 8.12329 15.1122 8.23738 15.2534 8.23738C15.3945 8.23738 15.5086 8.12329 15.5086 7.98215C15.5086 5.03064 13.1074 2.62915 10.1556 2.62915C10.0145 2.62915 9.90039 2.74324 9.90039 2.88438C9.90039 3.02553 10.0147 3.13962 10.1556 3.13962Z" fill="#ED1651"/>
<path d="M9.575 17.4219V18.8039H6.60001C6.06964 18.8039 5.63804 19.2353 5.63804 19.7659V20.5135C5.63804 20.6546 5.75213 20.7687 5.89327 20.7687H13.7669C13.9081 20.7687 14.0222 20.6546 14.0222 20.5135V19.7659C14.0222 19.2355 13.5908 18.8039 13.0602 18.8039H10.0855V17.4219C14.9969 17.2858 18.9512 13.2511 18.9512 8.30725C18.9512 7.59438 18.8688 6.88458 18.7057 6.19749C18.6733 6.06043 18.5352 5.97493 18.3987 6.00811C18.2616 6.04052 18.1766 6.17809 18.2093 6.31515C18.3433 6.88152 18.4163 7.46498 18.4334 8.05201H17.781C17.6455 3.78197 14.1324 0.349854 9.83024 0.349854C5.52803 0.349854 2.01475 3.78197 1.87923 8.05201H1.22685C1.24421 7.46549 1.31695 6.88228 1.45095 6.3149C1.48362 6.17758 1.39862 6.04027 1.26156 6.00785C1.12476 5.97493 0.986933 6.06018 0.954518 6.19724C0.791425 6.88534 0.708984 7.5954 0.708984 8.30725C0.708984 13.2508 4.66331 17.2858 9.575 17.4219ZM13.5117 19.7657V20.258H6.1485V19.7657C6.1485 19.5166 6.3509 19.3142 6.60001 19.3142H13.0605C13.3093 19.3144 13.5117 19.5168 13.5117 19.7657ZM9.83024 16.9178C5.1679 16.9178 1.36161 13.1924 1.22583 8.56248H1.87923C2.01475 12.8323 5.52803 16.2649 9.83024 16.2649C14.1324 16.2649 17.6455 12.8325 17.781 8.56248H18.4344C18.2986 13.1924 14.4926 16.9178 9.83024 16.9178ZM9.83024 0.860319C13.9364 0.860319 17.2772 4.20106 17.2772 8.30725C17.2772 12.4137 13.9364 15.7544 9.83024 15.7544C5.7238 15.7544 2.38306 12.4137 2.38306 8.30725C2.38306 4.20106 5.7238 0.860319 9.83024 0.860319Z" fill="#ED1651"/>
</svg>
