<svg width="17" height="22" viewBox="0 0 17 22" fill="none" xmlns="http://www.w3.org/2000/svg">
<path d="M16.355 0.349854H2.36931C1.90582 0.350409 1.46148 0.534773 1.13375 0.862507C0.806014 1.19024 0.621649 1.63458 0.621094 2.09807V19.5802C0.621649 20.0437 0.806014 20.4881 1.13375 20.8158C1.46148 21.1435 1.90582 21.3279 2.36931 21.3284H16.355C16.4478 21.3284 16.5367 21.2916 16.6023 21.226C16.6678 21.1605 16.7047 21.0715 16.7047 20.9788V0.699497C16.7047 0.606766 16.6678 0.517832 16.6023 0.452262C16.5367 0.386691 16.4478 0.349854 16.355 0.349854ZM2.36931 1.04914H16.0054V17.1327H2.36931C1.98978 17.134 1.62121 17.2601 1.32038 17.4915V2.09807C1.32038 1.81988 1.43089 1.55308 1.6276 1.35636C1.82432 1.15965 2.09112 1.04914 2.36931 1.04914ZM2.36931 20.6292C2.09112 20.6292 1.82432 20.5186 1.6276 20.3219C1.43089 20.1252 1.32038 19.8584 1.32038 19.5802V18.8809C1.32038 18.6027 1.43089 18.3359 1.6276 18.1392C1.82432 17.9425 2.09112 17.832 2.36931 17.832H16.0054V18.8809H2.71895V19.5802H16.0054V20.6292H2.36931Z" fill="#ED1651"/>
<path d="M3.76761 7.34276H14.2569C14.3496 7.34276 14.4386 7.30592 14.5041 7.24035C14.5697 7.17478 14.6065 7.08585 14.6065 6.99311V2.7974C14.6065 2.70467 14.5697 2.61573 14.5041 2.55016C14.4386 2.48459 14.3496 2.44775 14.2569 2.44775H3.76761C3.67488 2.44775 3.58595 2.48459 3.52038 2.55016C3.45481 2.61573 3.41797 2.70467 3.41797 2.7974V6.99311C3.41797 7.08585 3.45481 7.17478 3.52038 7.24035C3.58595 7.30592 3.67488 7.34276 3.76761 7.34276ZM4.11726 3.14704H13.9073V6.64347H4.11726V3.14704Z" fill="#ED1651"/>
</svg>
