<svg width="15" height="25" viewBox="0 0 15 25" fill="none" xmlns="http://www.w3.org/2000/svg">
<path d="M12.4618 0.349973H2.45717C1.95349 0.344321 1.46813 0.538611 1.10747 0.89025C0.746815 1.24189 0.540302 1.72218 0.533203 2.22584V23.1009C0.540302 23.6046 0.746815 24.0849 1.10747 24.4365C1.46813 24.7881 1.95349 24.9824 2.45717 24.9768H12.4618C12.9655 24.9824 13.4509 24.7881 13.8115 24.4365C14.1722 24.0849 14.3787 23.6046 14.3858 23.1009V2.22584C14.3787 1.72218 14.1722 1.24189 13.8115 0.89025C13.4509 0.538611 12.9655 0.344321 12.4618 0.349973ZM13.6162 23.1009C13.6091 23.4005 13.4837 23.685 13.2674 23.8923C13.051 24.0997 12.7614 24.2129 12.4618 24.2072H2.45717C2.15759 24.2129 1.86795 24.0997 1.65161 23.8923C1.43528 23.685 1.30986 23.4005 1.30279 23.1009V2.22584C1.30986 1.92629 1.43528 1.64173 1.65161 1.43441C1.86795 1.22708 2.15759 1.11388 2.45717 1.11956H4.38114C4.38876 1.32124 4.47229 1.51259 4.61499 1.6553C4.7577 1.798 4.94905 1.88153 5.15073 1.88915H9.76825C9.96791 1.87564 10.1559 1.79023 10.2974 1.64872C10.4389 1.50722 10.5243 1.31922 10.5378 1.11956H12.4618C12.7614 1.11388 13.051 1.22708 13.2674 1.43441C13.4837 1.64173 13.6091 1.92629 13.6162 2.22584V23.1009Z" fill="#ED1651"/>
</svg>
