<svg width="20" height="19" viewBox="0 0 20 19" fill="none" xmlns="http://www.w3.org/2000/svg">
<path d="M18.2087 7.4535C17.9383 7.49213 17.6678 7.64665 17.5519 7.91706C16.8566 4.16989 13.7275 1.34985 9.98034 1.34985C6.23317 1.34985 3.10408 4.16989 2.40873 7.91706C2.29284 7.64665 2.02243 7.49213 1.75201 7.4535C1.17255 7.4535 0.708984 8.38063 0.708984 9.53955C0.708984 10.6985 1.17255 11.6256 1.75201 11.6256C2.02243 11.587 2.29284 11.4325 2.40873 11.162C3.10408 14.9478 6.23317 17.7679 9.98034 17.7679C13.7275 17.7679 16.8566 14.9478 17.5519 11.162C17.6678 11.4325 17.8996 11.587 18.2087 11.6256C18.7881 11.6256 19.2517 10.6985 19.2517 9.53955C19.2517 8.38063 18.7881 7.4535 18.2087 7.4535Z" stroke="#ED1651" stroke-width="0.772613" stroke-linecap="round" stroke-linejoin="round"/>
<path d="M9.78634 1.34985C9.78634 1.34985 11.2929 2.47014 11.4475 4.24715V4.44031C11.3702 5.32881 10.5976 5.98553 9.70908 5.9469C8.89784 5.90827 8.27975 5.25155 8.20249 4.44031C8.20249 4.01537 8.35701 3.62906 8.66606 3.35865M7.9707 12.3982C9.24551 12.9777 10.7135 12.9777 12.0269 12.3982" stroke="#ED1651" stroke-width="0.772613" stroke-linecap="round" stroke-linejoin="round"/>
<path d="M9.98055 12.8232C9.24656 12.8232 8.58984 13.4027 8.58984 14.1753C8.58984 14.9093 9.1693 15.566 9.94192 15.566C10.7145 15.566 11.3326 14.9866 11.3326 14.2139C11.3326 14.2139 11.3326 14.2139 11.3326 14.1753C11.3326 13.4413 10.7145 12.8232 9.98055 12.8232Z" stroke="#ED1651" stroke-width="0.772613" stroke-linecap="round" stroke-linejoin="round"/>
<path d="M12.3359 8.88281H12.8768" stroke="#ED1651" stroke-width="0.772613" stroke-linecap="round" stroke-linejoin="round"/>
<path d="M7.08398 8.88281H7.66344" stroke="#ED1651" stroke-width="0.772613" stroke-linecap="round" stroke-linejoin="round"/>
<path d="M12.3359 1.69751C13.1858 2.54738 13.4949 3.78356 13.1086 4.94248" stroke="#ED1651" stroke-width="0.772613" stroke-linecap="round" stroke-linejoin="round"/>
</svg>
