<svg width="19" height="20" viewBox="0 0 19 20" fill="none" xmlns="http://www.w3.org/2000/svg">
<path d="M14.7677 19.5042H4.66043C4.44868 19.5042 4.27734 19.3328 4.27734 19.1211V6.5159C4.27734 6.30415 4.44868 6.13281 4.66043 6.13281C4.87217 6.13281 5.04352 6.30415 5.04352 6.5159V18.738H14.3846V6.5159C14.3846 6.30415 14.5559 6.13281 14.7677 6.13281C14.9794 6.13281 15.1508 6.30415 15.1508 6.5159V19.1211C15.1508 19.3328 14.9794 19.5042 14.7677 19.5042Z" fill="#ED1651"/>
<path d="M18.3328 15.881H14.7668V15.1148H17.8947L16.1084 1.86993C15.6138 1.72664 14.3691 1.39032 12.8465 1.16174L12.7953 1.37798C12.4511 2.83251 11.1989 3.85906 9.75041 3.87365L9.68643 3.87402C8.24388 3.86242 6.96031 2.80033 6.63035 1.34842L6.59668 1.19953C5.09539 1.43035 3.82642 1.74385 3.31539 1.87778L1.53015 15.1148H4.65955V15.881H1.09207C0.981707 15.881 0.876583 15.8331 0.803632 15.7501C0.731055 15.667 0.697759 15.5563 0.71235 15.4467L2.58999 1.52276C2.61057 1.37162 2.71831 1.24704 2.86534 1.20551C2.93829 1.18494 4.67826 0.694483 6.83835 0.389211C7.03326 0.361153 7.22144 0.489472 7.26559 0.684008L7.37782 1.17895C7.62959 2.28781 8.6019 3.09924 9.68943 3.10785L9.73956 3.10747C10.8379 3.09625 11.7867 2.3125 12.05 1.20102L12.1821 0.644352C12.2274 0.45281 12.4137 0.32711 12.606 0.353297C14.8128 0.651835 16.5008 1.18643 16.5719 1.20925C16.7125 1.25415 16.815 1.37611 16.8349 1.52276L18.7125 15.4467C18.7271 15.5563 18.6938 15.667 18.6212 15.7501C18.5483 15.8331 18.4432 15.881 18.3328 15.881Z" fill="#ED1651"/>
</svg>
