<svg width="20" height="20" viewBox="0 0 20 20" fill="none" xmlns="http://www.w3.org/2000/svg">
<path d="M1.60256 4.34101C1.32719 4.41205 1.11648 4.61637 1.03826 4.88815C0.731147 5.96271 0.716828 7.09982 0.996788 8.18177C1.27675 9.26373 1.84081 10.2512 2.63058 11.0419C4.29354 12.7045 6.75944 13.2939 8.9795 12.5776L15.0862 18.6703C15.3511 18.9357 15.6656 19.1463 16.0119 19.2901C16.3582 19.4339 16.7294 19.508 17.1043 19.5083C17.86 19.5068 18.5841 19.2053 19.1177 18.6703C20.2291 17.5589 20.2291 15.7498 19.1177 14.638L13.0158 8.54968C13.3721 7.45091 13.4182 6.27509 13.1489 5.1518C12.8797 4.02851 12.3055 3.00138 11.4897 2.1836C10.6989 1.3938 9.71138 0.829715 8.62936 0.549755C7.54733 0.269795 6.41015 0.284132 5.33553 0.591281C5.20286 0.628845 5.08243 0.700711 4.98637 0.799637C4.89032 0.898564 4.82203 1.02106 4.78839 1.15478C4.71656 1.43333 4.79438 1.72107 4.99671 1.9238L7.41632 4.34301C7.76298 4.69056 7.95992 5.15993 7.96505 5.65078C7.96157 6.12362 7.78102 6.57798 7.45902 6.92424C7.13098 7.27463 6.67284 7.47177 6.1688 7.48015C5.90069 7.48474 5.63438 7.43558 5.38557 7.33558C5.13677 7.23557 4.91051 7.08676 4.72015 6.8979L2.37078 4.54933C2.27225 4.45015 2.14934 4.37868 2.0144 4.34211C1.87947 4.30554 1.73728 4.30516 1.60216 4.34101H1.60256ZM6.13608 8.27871L6.18157 8.27831C6.9039 8.26634 7.56438 7.979 8.04127 7.46978C8.49862 6.98171 8.75482 6.33919 8.7632 5.65078C8.75802 4.9483 8.47678 4.27603 7.98021 3.77911L5.55502 1.35871C6.49272 1.09068 7.48502 1.07817 8.42918 1.32249C9.37333 1.56681 10.235 2.05907 10.925 2.74829C12.4335 4.25681 12.9268 6.52077 12.1821 8.51576C12.127 8.66262 12.1665 8.83103 12.2775 8.94158L18.553 15.2031C18.8399 15.4903 19.0354 15.856 19.1147 16.2542C19.194 16.6523 19.1537 17.065 18.9987 17.4402C18.8437 17.8155 18.5811 18.1364 18.244 18.3626C17.9068 18.5887 17.5103 18.7099 17.1043 18.711C16.5584 18.7101 16.0352 18.4925 15.6497 18.106L9.36701 11.8365C9.3131 11.7827 9.24492 11.7454 9.17052 11.7292C9.09612 11.7129 9.01862 11.7183 8.94718 11.7447C6.95778 12.479 4.6994 11.9817 3.19528 10.4776C2.50648 9.78871 2.01451 8.92807 1.77039 7.98497C1.52626 7.04186 1.53886 6.05062 1.80689 5.11402L4.15546 7.4622C4.68225 7.98501 5.39389 8.27848 6.13608 8.27871Z" fill="#ED1651"/>
<path d="M16.4092 17.0535C16.4615 17.0535 16.5133 17.0432 16.5617 17.0231C16.61 17.0031 16.6539 16.9737 16.6909 16.9366L17.3845 16.243C17.4226 16.2062 17.453 16.1622 17.4739 16.1135C17.4949 16.0648 17.5059 16.0124 17.5063 15.9594C17.5068 15.9064 17.4967 15.8539 17.4766 15.8048C17.4566 15.7558 17.4269 15.7112 17.3894 15.6738C17.352 15.6363 17.3074 15.6067 17.2584 15.5866C17.2093 15.5665 17.1568 15.5564 17.1038 15.5569C17.0508 15.5574 16.9984 15.5684 16.9497 15.5893C16.9011 15.6102 16.857 15.6406 16.8202 15.6787L16.1266 16.3723C16.0708 16.4281 16.0328 16.4992 16.0174 16.5766C16.002 16.654 16.0099 16.7343 16.0401 16.8072C16.0703 16.8801 16.1215 16.9424 16.1871 16.9863C16.2527 17.0301 16.3302 17.0535 16.4092 17.0535Z" fill="#ED1651"/>
</svg>
