<svg width="22" height="21" viewBox="0 0 22 21" fill="none" xmlns="http://www.w3.org/2000/svg">
<path d="M0.797855 10.6411V10.6682C0.90494 13.2896 2.02161 15.768 3.91424 17.5849C5.80686 19.4017 8.32879 20.4163 10.9524 20.4163C13.5759 20.4163 16.0978 19.4017 17.9905 17.5849C19.8831 15.768 20.9998 13.2896 21.1069 10.6682C21.1069 10.6682 21.1069 10.6479 21.1069 10.6411C21.1429 8.39756 20.4341 6.2054 19.0912 4.40779C18.8052 4.02615 18.4928 3.66504 18.1562 3.32713C17.2125 2.38323 16.092 1.63447 14.8589 1.12363C13.6258 0.612783 12.3041 0.349854 10.9693 0.349854C9.63453 0.349854 8.31284 0.612783 7.0797 1.12363C5.84656 1.63447 4.72612 2.38323 3.78238 3.32713C3.44 3.66446 3.12189 4.02558 2.83045 4.40779C1.48154 6.20324 0.766641 8.39559 0.797855 10.6411ZM3.10146 5.18018L4.11776 8.28327L1.47539 10.1939C1.53141 8.4008 2.09916 6.66114 3.11162 5.18018H3.10146ZM1.50926 11.0137L4.57848 8.78803L7.49525 9.73657L8.60979 13.1683L6.80756 15.648H2.99306C2.09003 14.2666 1.5666 12.6718 1.47539 11.0239L1.50926 11.0137ZM10.9608 7.53798L13.7692 9.57058L12.6953 12.8769H9.22634L8.15246 9.57735L10.9608 7.53798ZM14.4298 9.73657L17.3466 8.78803L20.4124 11.0137H20.4293C20.3444 12.6624 19.8268 14.2595 18.9286 15.6446H15.1175L13.3152 13.1649L14.4298 9.73657ZM20.4463 10.1939L17.8039 8.28327L18.8202 5.18018C19.8291 6.66225 20.3932 8.40183 20.4463 10.1939ZM3.4741 16.3256H6.73303L7.74933 19.432C6.43434 18.9598 5.24035 18.202 4.25326 17.2131C3.97564 16.9335 3.71543 16.6371 3.4741 16.3256ZM8.53187 19.676V19.6522L7.35297 16.0478L9.16537 13.5545H12.7563L14.5687 16.0478L13.3965 19.6522V19.676C11.8022 20.0964 10.1262 20.0964 8.53187 19.676ZM17.6785 17.2131C16.6934 18.2012 15.5018 18.9589 14.1893 19.432L15.2056 16.3256H18.4475C18.2062 16.6371 17.946 16.9335 17.6684 17.2131H17.6785ZM18.329 4.51958V4.53991L17.1365 8.13421L14.2435 9.08275L11.2996 6.94514V3.89625L14.3485 1.66718L14.3654 1.65024C15.5983 2.12656 16.7177 2.8559 17.6514 3.79124C17.8861 4.02138 18.1088 4.26334 18.3188 4.51619L18.329 4.51958ZM13.5998 1.39278L10.9608 3.31019L8.32184 1.39278C10.0461 0.896219 11.8755 0.896219 13.5998 1.39278ZM4.25326 3.79801C5.18705 2.86267 6.30644 2.13334 7.53929 1.65701L7.55623 1.67395L10.6051 3.90303V6.95192L7.67818 9.08275L4.78513 8.13421L3.613 4.53652V4.51619C3.81436 4.26631 4.02804 4.02662 4.25326 3.79801Z" fill="#ED1651"/>
</svg>
